<?xml version="1.0" encoding="UTF-8"?>
<svg width="65px" height="64px" viewBox="0 0 65 64" version="1.1" xmlns="http://www.w3.org/2000/svg" xmlns:xlink="http://www.w3.org/1999/xlink">
    <!-- Generator: Sketch 59.1 (86144) - https://sketch.com -->
    <title>Group 61</title>
    <desc>Created with Sketch.</desc>
    <defs>
        <polygon id="path-1" points="0 0.304640005 64.934401 0.304640005 64.934401 4.80000007 0 4.80000007"></polygon>
        <polygon id="path-3" points="0.0806400012 0.305280005 13.7344002 0.305280005 13.7344002 4.80000007 0.0806400012 4.80000007"></polygon>
    </defs>
    <g id="Page-1" stroke="none" stroke-width="1" fill="none" fill-rule="evenodd">
        <g id="2" transform="translate(-376.000000, -357.000000)">
            <g id="Group-4" transform="translate(199.000000, 324.000000)">
                <g id="Group-61" transform="translate(177.000000, 33.000000)">
                    <path d="M57.6446409,30.3990405 L6.9998401,30.3990405 C5.26064008,30.3990405 3.84944006,31.8102405 3.84944006,33.5494405 L3.84944006,59.5046409 L5.50064008,59.5046409 L5.50064008,34.1206405 C5.50064008,33.0518405 6.36784009,32.1846405 7.43664011,32.1846405 L57.1694409,32.1846405 C58.2590409,32.1846405 59.1422409,33.0678405 59.1422409,34.1574405 L59.1422409,59.5046409 L60.7934409,59.5046409 L60.7934409,33.5494405 C60.7934409,31.8102405 59.3838409,30.3990405 57.6446409,30.3990405" id="Fill-1" fill="#AFB4BC"></path>
                    <path d="M14.1166402,52.6507208 L14.1166402,52.6507208 C11.4446402,52.6507208 9.27984014,50.4843208 9.27984014,47.8139207 L9.27984014,14.7403202 L18.9550403,14.7403202 L18.9550403,47.8139207 C18.9550403,50.4843208 16.7902403,52.6507208 14.1166402,52.6507208" id="Fill-3" fill="#EDEDED"></path>
                    <path d="M9.27904014,14.7396802 L9.27904014,17.0004803 C13.2550402,17.0004803 16.4790402,20.2244803 16.4790402,24.2004804 L16.4790402,50.0724807 C16.4790402,50.8740808 16.2822402,51.6308808 15.9366402,52.2964808 C17.7078403,51.5764808 18.9558403,49.8404807 18.9558403,47.8132807 L18.9558403,14.7396802 L9.27904014,14.7396802 Z" id="Fill-5" fill="#DDDDDD"></path>
                    <path d="M18.7993603,14.7396802 L9.43456014,14.7396802 C8.50016013,14.7396802 7.74176012,13.9812802 7.74176012,13.0452802 L7.74176012,12.9716802 C7.74176012,12.0372802 8.50016013,11.2772802 9.43456014,11.2772802 L18.7993603,11.2772802 C19.7353603,11.2772802 20.4937603,12.0372802 20.4937603,12.9716802 L20.4937603,13.0452802 C20.4937603,13.9812802 19.7353603,14.7396802 18.7993603,14.7396802" id="Fill-7" fill="#AFB4BC"></path>
                    <path d="M18.7993603,11.2772802 L14.8889602,11.2772802 C15.8233602,11.2772802 16.5801602,12.0372802 16.5801602,12.9716802 L16.5801602,13.0452802 C16.5801602,13.9812802 15.8233602,14.7396802 14.8889602,14.7396802 L18.7993603,14.7396802 C19.7353603,14.7396802 20.4937603,13.9812802 20.4937603,13.0452802 L20.4937603,12.9716802 C20.4937603,12.0372802 19.7353603,11.2772802 18.7993603,11.2772802" id="Fill-9" fill="#979FAF"></path>
                    <path d="M32.2072005,52.6507208 L32.2072005,52.6507208 C29.5336004,52.6507208 27.3688004,50.4843208 27.3688004,47.8139207 L27.3688004,14.7403202 L37.0456006,14.7403202 L37.0456006,47.8139207 C37.0456006,50.4843208 34.8792005,52.6507208 32.2072005,52.6507208" id="Fill-11" fill="#EDEDED"></path>
                    <path d="M27.3681604,14.7396802 L27.3681604,16.8260803 C31.0625605,16.8260803 34.0577605,19.8196803 34.0577605,23.5124804 L34.0577605,49.8980807 C34.0577605,50.8692808 33.7697605,51.7732808 33.2753605,52.5316808 C35.4337605,52.0436808 37.0465606,50.1172807 37.0465606,47.8132807 L37.0449606,14.7396802 L27.3681604,14.7396802 Z" id="Fill-13" fill="#DDDDDD"></path>
                    <path d="M36.8508805,14.7396802 L27.5612804,14.7396802 C26.6060804,14.7396802 25.8300804,13.9652802 25.8300804,13.0084802 C25.8300804,12.0516802 26.6060804,11.2772802 27.5612804,11.2772802 L36.8508805,11.2772802 C37.8076806,11.2772802 38.5820806,12.0516802 38.5820806,13.0084802 C38.5820806,13.9652802 37.8076806,14.7396802 36.8508805,14.7396802" id="Fill-15" fill="#AFB4BC"></path>
                    <path d="M36.8884805,11.2772802 L32.9780805,11.2772802 C33.9124805,11.2772802 34.6708805,12.0372802 34.6708805,12.9716802 L34.6708805,13.0452802 C34.6708805,13.9812802 33.9124805,14.7396802 32.9780805,14.7396802 L36.8884805,14.7396802 C37.8244806,14.7396802 38.5828806,13.9812802 38.5828806,13.0452802 L38.5828806,12.9716802 C38.5828806,12.0372802 37.8244806,11.2772802 36.8884805,11.2772802" id="Fill-17" fill="#979FAF"></path>
                    <path d="M50.2963207,52.6507208 L50.2963207,52.6507208 C47.6243207,52.6507208 45.4579207,50.4843208 45.4579207,47.8139207 L45.4579207,14.7403202 L55.1347208,14.7403202 L55.1347208,47.8139207 C55.1347208,50.4843208 52.9683208,52.6507208 50.2963207,52.6507208" id="Fill-19" fill="#EDEDED"></path>
                    <path d="M45.4572807,14.7396802 L45.4572807,16.8260803 C49.3132807,16.8260803 52.4396808,19.9508803 52.4396808,23.8084804 L52.4396808,49.8980807 C52.4396808,50.8308808 52.1756808,51.6996808 51.7196808,52.4388808 C53.6956808,51.8308808 55.1356808,49.9892807 55.1356808,47.8132807 L55.1356808,14.7396802 L45.4572807,14.7396802 Z" id="Fill-21" fill="#DDDDDD"></path>
                    <path d="M54.9790408,14.7396802 L45.6126407,14.7396802 C44.6798407,14.7396802 43.9214407,13.9812802 43.9214407,13.0452802 L43.9214407,12.9716802 C43.9214407,12.0372802 44.6798407,11.2772802 45.6126407,11.2772802 L54.9790408,11.2772802 C55.9134408,11.2772802 56.6718408,12.0372802 56.6718408,12.9716802 L56.6718408,13.0452802 C56.6718408,13.9812802 55.9134408,14.7396802 54.9790408,14.7396802" id="Fill-23" fill="#AFB4BC"></path>
                    <path d="M54.9790408,11.2772802 L51.0670408,11.2772802 C52.0030408,11.2772802 52.7598408,12.0372802 52.7598408,12.9716802 L52.7598408,13.0452802 C52.7598408,13.9812802 52.0030408,14.7396802 51.0670408,14.7396802 L54.9774408,14.7396802 C55.9134408,14.7396802 56.6718408,13.9812802 56.6718408,13.0452802 L56.6718408,12.9716802 C56.6718408,12.0372802 55.9134408,11.2772802 54.9790408,11.2772802" id="Fill-25" fill="#979FAF"></path>
                    <g id="Group-29" transform="translate(0.000000, 59.200001)">
                        <mask id="mask-2" fill="white">
                            <use xlink:href="#path-1"></use>
                        </mask>
                        <g id="Clip-28"></g>
                        <path d="M64.294721,4.80064007 L0.64032001,4.80064007 C0.286720004,4.80064007 -0.00128000002,4.51264007 -0.00128000002,4.16064006 C-0.00128000002,2.03104003 1.72672003,0.304640005 3.85472006,0.304640005 L61.0803209,0.304640005 C63.2083209,0.304640005 64.934721,2.03104003 64.934721,4.16064006 C64.934721,4.51264007 64.648321,4.80064007 64.294721,4.80064007" id="Fill-27" fill="#585A6A" mask="url(#mask-2)"></path>
                    </g>
                    <g id="Group-32" transform="translate(51.200001, 59.200001)">
                        <mask id="mask-4" fill="white">
                            <use xlink:href="#path-3"></use>
                        </mask>
                        <g id="Clip-31"></g>
                        <path d="M9.88064015,0.305280005 L0.0806400012,0.305280005 C2.20864003,0.305280005 3.93504006,2.03008003 3.93504006,4.15968006 L3.93504006,4.80128007 L13.0950402,4.80128007 C13.4470402,4.80128007 13.7350402,4.51328007 13.7350402,4.15968006 C13.7350402,2.03008003 12.0086402,0.305280005 9.88064015,0.305280005" id="Fill-30" fill="#2A2B35" mask="url(#mask-4)"></path>
                    </g>
                    <path d="M18.9556803,34.7491205 L9.27888014,34.7491205 L9.27888014,47.8131207 C9.27888014,50.4851208 11.4468802,52.6499208 14.1188802,52.6499208 C16.7892803,52.6499208 18.9556803,50.4851208 18.9556803,47.8131207 L18.9556803,34.7491205 Z" id="Fill-33" fill="#FF85DA"></path>
                    <path d="M18.9556803,47.8131207 L18.9556803,34.7491205 L16.4788802,34.7491205 L16.4788802,52.0371208 C17.9556803,51.2083208 18.9556803,49.6275207 18.9556803,47.8131207" id="Fill-35" fill="#F279C4"></path>
                    <path d="M37.0462406,24.8396804 L27.3678404,24.8396804 L27.3678404,47.8124807 C27.3678404,50.4844808 29.5358404,52.6508808 32.2078405,52.6508808 C34.8798405,52.6508808 37.0462406,50.4844808 37.0462406,47.8124807 L37.0462406,24.8412804 L37.0462406,24.8396804 Z" id="Fill-37" fill="#736EFF"></path>
                    <path d="M37.0462406,47.8131207 L37.0462406,24.8403204 L34.0574405,24.8403204 L34.0574405,52.2851208 C35.8110405,51.5587208 37.0446406,49.8307207 37.0462406,47.8131207" id="Fill-39" fill="#6060D8"></path>
                    <path d="M55.1353608,41.5304006 L55.1353608,41.5288006 L45.4569607,41.5288006 L45.4569607,47.8136007 C45.4569607,50.4856008 47.6249607,52.6504008 50.2969607,52.6504008 C52.9689608,52.6504008 55.1353608,50.4856008 55.1353608,47.8136007 L55.1353608,41.5304006 Z" id="Fill-41" fill="#FFDC48"></path>
                    <path d="M52.4400008,41.5288006 L52.4400008,52.1512008 C54.0368008,51.3608008 55.1360008,49.7144007 55.1360008,47.8136007 L55.1360008,41.5304006 L55.1360008,41.5288006 L52.4400008,41.5288006 Z" id="Fill-43" fill="#F2AD00"></path>
                    <path d="M18.6790403,3.62880005 C19.6806403,3.62880005 20.4934403,4.44160007 20.4934403,5.44320008 C20.4934403,6.4464001 19.6806403,7.25760011 18.6790403,7.25760011 C17.6774403,7.25760011 16.8646403,6.4464001 16.8646403,5.44320008 C16.8646403,4.44160007 17.6774403,3.62880005 18.6790403,3.62880005" id="Fill-45" fill="#FF5122"></path>
                    <path d="M49.4150407,0.00064000001 C50.4166408,0.00064000001 51.2294408,0.811840012 51.2294408,1.81504003 C51.2294408,2.81664004 50.4166408,3.62944005 49.4150407,3.62944005 C48.4134407,3.62944005 47.6006407,2.81664004 47.6006407,1.81504003 C47.6006407,0.811840012 48.4134407,0.00064000001 49.4150407,0.00064000001" id="Fill-47" fill="#FFDC48"></path>
                    <path d="M13.2806402,19.7193603 C13.8502402,19.7193603 14.3142402,20.1817603 14.3142402,20.7529603 C14.3142402,21.3209603 13.8502402,21.7833603 13.2806402,21.7833603 C12.7126402,21.7833603 12.2486402,21.3209603 12.2486402,20.7529603 C12.2486402,20.1817603 12.7126402,19.7193603 13.2806402,19.7193603" id="Fill-49" fill="#FF8D27"></path>
                    <path d="M13.2806402,0.781920012 C13.8502402,0.781920012 14.3142402,1.24432002 14.3142402,1.81552003 C14.3142402,2.38352004 13.8502402,2.84592004 13.2806402,2.84592004 C12.7126402,2.84592004 12.2486402,2.38352004 12.2486402,1.81552003 C12.2486402,1.24432002 12.7126402,0.781920012 13.2806402,0.781920012" id="Fill-51" fill="#FF8D27"></path>
                    <path d="M34.0572805,6.6944001 C34.6252805,6.6944001 35.0892805,7.15520011 35.0892805,7.72640012 C35.0892805,8.29600012 34.6252805,8.75680013 34.0572805,8.75680013 C33.4876805,8.75680013 33.0236805,8.29600012 33.0236805,7.72640012 C33.0236805,7.15520011 33.4876805,6.6944001 34.0572805,6.6944001" id="Fill-53" fill="#579CFF"></path>
                    <path d="M45.9744007,6.22560009 C46.5440007,6.22560009 47.0064007,6.6880001 47.0064007,7.25760011 C47.0064007,7.82720012 46.5440007,8.28960012 45.9744007,8.28960012 C45.4048007,8.28960012 44.9424007,7.82720012 44.9424007,7.25760011 C44.9424007,6.6880001 45.4048007,6.22560009 45.9744007,6.22560009" id="Fill-55" fill="#FF8D27"></path>
                    <path d="M51.6806408,33.7179205 C52.2486408,33.7179205 52.7126408,34.1803205 52.7126408,34.7499205 C52.7126408,35.3195205 52.2486408,35.7819205 51.6806408,35.7819205 C51.1110408,35.7819205 50.6486408,35.3195205 50.6486408,34.7499205 C50.6486408,34.1803205 51.1110408,33.7179205 51.6806408,33.7179205" id="Fill-57" fill="#FF8D27"></path>
                    <path d="M48.6321607,20.0694403 C49.2017607,20.0694403 49.6657607,20.5302403 49.6657607,21.1014403 C49.6657607,21.6710403 49.2017607,22.1318403 48.6321607,22.1318403 C48.0641607,22.1318403 47.6001607,21.6710403 47.6001607,21.1014403 C47.6001607,20.5302403 48.0641607,20.0694403 48.6321607,20.0694403" id="Fill-59" fill="#FF8D27"></path>
                </g>
            </g>
        </g>
    </g>
</svg>