<?xml version="1.0" encoding="UTF-8"?>
<svg width="67px" height="68px" viewBox="0 0 67 68" version="1.1" xmlns="http://www.w3.org/2000/svg" xmlns:xlink="http://www.w3.org/1999/xlink">
    <!-- Generator: Sketch 59.1 (86144) - https://sketch.com -->
    <title>Group 57</title>
    <desc>Created with Sketch.</desc>
    <defs>
        <polygon id="path-1" points="0.182749992 0 2.20574991 0 2.20574991 14.0311194 0.182749992 14.0311194"></polygon>
        <polygon id="path-3" points="0 67.9999971 66.9884972 67.9999971 66.9884972 0 0 0"></polygon>
    </defs>
    <g id="Page-1" stroke="none" stroke-width="1" fill="none" fill-rule="evenodd">
        <g id="2" transform="translate(-959.000000, -352.000000)">
            <g id="Group-4" transform="translate(199.000000, 324.000000)">
                <g id="Group-57" transform="translate(760.000000, 28.000000)">
                    <polygon id="Fill-1" fill="#FF9933" points="33.4950986 3.78079984 42.3350982 3.78079984 42.3350982 1.04379996 33.4950986 1.04379996"></polygon>
                    <polygon id="Fill-2" fill="#FFFFFF" points="33.4950986 6.51949973 42.3350982 6.51949973 42.3350982 3.78249984 33.4950986 3.78249984"></polygon>
                    <polygon id="Fill-3" fill="#138808" points="33.4950986 9.25649961 42.3350982 9.25649961 42.3350982 6.51949973 33.4950986 6.51949973"></polygon>
                    <polygon id="Fill-4" fill="#CCCCCC" points="53.6638977 64.2650973 64.1698973 64.2650973 64.1698973 49.3747979 53.6638977 49.3747979"></polygon>
                    <polygon id="Fill-5" fill="#CCCCCC" points="2.82029988 64.3381973 13.4282994 64.3381973 13.4282994 49.2999979 2.82029988 49.2999979"></polygon>
                    <polygon id="Fill-6" fill="#BCBBBB" points="2.82029988 64.3381973 6.94619971 64.3381973 6.94619971 49.2999979 2.82029988 49.2999979"></polygon>
                    <polygon id="Fill-7" fill="#BCBBBB" points="54.0191977 64.3381973 58.1467976 64.3381973 58.1467976 49.2999979 54.0191977 49.2999979"></polygon>
                    <polygon id="Fill-8" fill="#EFEFEF" points="20.4832991 38.7531984 46.506898 38.7531984 46.506898 29.5340988 20.4832991 29.5340988"></polygon>
                    <polygon id="Fill-9" fill="#DDDDDD" points="20.4832991 38.7531984 24.527599 38.7531984 24.527599 29.5340988 20.4832991 29.5340988"></polygon>
                    <g id="Group-56">
                        <g id="Group-12" transform="translate(32.299999, 0.000000)">
                            <mask id="mask-2" fill="white">
                                <use xlink:href="#path-1"></use>
                            </mask>
                            <g id="Clip-11"></g>
                            <path d="M1.19424995,14.0311194 C0.636649973,14.0311194 0.182749992,13.5789194 0.182749992,13.0196195 L0.182749992,1.01081996 C0.182749992,0.453219981 0.636649973,-0.000679999971 1.19424995,-0.000679999971 C1.75354993,-0.000679999971 2.20574991,0.453219981 2.20574991,1.01081996 L2.20574991,13.0213195 C2.20574991,13.5789194 1.75354993,14.0311194 1.19424995,14.0311194" id="Fill-10" fill="#666666" mask="url(#mask-2)"></path>
                        </g>
                        <mask id="mask-4" fill="white">
                            <use xlink:href="#path-3"></use>
                        </mask>
                        <g id="Clip-14"></g>
                        <polygon id="Fill-13" fill="#EFEFEF" mask="url(#mask-4)" points="12.9692995 64.3364973 54.0174977 64.3364973 54.0174977 41.9083982 12.9692995 41.9083982"></polygon>
                        <polygon id="Fill-15" fill="#DDDDDD" mask="url(#mask-4)" points="12.9692995 64.3364973 17.0135993 64.3364973 17.0135993 41.9083982 12.9692995 41.9083982"></polygon>
                        <path d="M33.4942486,13.0218295 C26.3083489,13.0218295 20.4841491,18.9820292 20.4841491,26.1662289 L46.506048,26.1662289 C46.506048,18.9820292 40.6818483,13.0218295 33.4942486,13.0218295" id="Fill-16" fill="#EFEFEF" mask="url(#mask-4)"></path>
                        <path d="M35.5162285,13.1811194 C27.6163288,11.9214195 20.4831291,18.1723192 20.4831291,26.1674189 L24.527429,26.1674189 C24.527429,19.6683192 29.2908288,14.1739194 35.5162285,13.1811194" id="Fill-17" fill="#DDDDDD" mask="url(#mask-4)"></path>
                        <path d="M64.9955873,45.6388781 L54.0186877,45.6388781 L54.0186877,49.6270779 L64.9955873,49.6270779 C66.0954872,49.6270779 66.9896872,48.7328779 66.9896872,47.632978 C66.9896872,46.531378 66.0954872,45.6388781 64.9955873,45.6388781" id="Fill-18" fill="#EAE4D6" mask="url(#mask-4)"></path>
                        <polygon id="Fill-19" fill="#DDD3C0" mask="url(#mask-4)" points="54.0191977 49.6246979 58.1467976 49.6246979 58.1467976 45.6381981 54.0191977 45.6381981"></polygon>
                        <path d="M1.99443992,45.6388781 L12.9696395,45.6388781 L12.9696395,49.6270779 L1.99443992,49.6270779 C0.892839962,49.6270779 0.000339999986,48.7328779 0.000339999986,47.632978 C0.000339999986,46.531378 0.892839962,45.6388781 1.99443992,45.6388781" id="Fill-20" fill="#EAE4D6" mask="url(#mask-4)"></path>
                        <path d="M26.2160389,36.1311185 C25.6567389,36.1311185 25.2045389,35.6789185 25.2045389,35.1196185 L25.2045389,33.2649186 C25.2045389,32.7056186 25.6567389,32.2551186 26.2160389,32.2551186 C26.7736389,32.2551186 27.2275389,32.7056186 27.2275389,33.2649186 L27.2275389,35.1196185 C27.2275389,35.6789185 26.7736389,36.1311185 26.2160389,36.1311185" id="Fill-21" fill="#898989" mask="url(#mask-4)"></path>
                        <path d="M31.0686887,36.1311185 C30.5093887,36.1311185 30.0571887,35.6789185 30.0571887,35.1196185 L30.0571887,33.2649186 C30.0571887,32.7056186 30.5093887,32.2551186 31.0686887,32.2551186 C31.6262887,32.2551186 32.0801887,32.7056186 32.0801887,33.2649186 L32.0801887,35.1196185 C32.0801887,35.6789185 31.6262887,36.1311185 31.0686887,36.1311185" id="Fill-22" fill="#898989" mask="url(#mask-4)"></path>
                        <path d="M40.7739883,36.1311185 C40.2146883,36.1311185 39.7624883,35.6789185 39.7624883,35.1196185 L39.7624883,33.2649186 C39.7624883,32.7056186 40.2146883,32.2551186 40.7739883,32.2551186 C41.3315883,32.2551186 41.7837882,32.7056186 41.7837882,33.2649186 L41.7837882,35.1196185 C41.7837882,35.6789185 41.3315883,36.1311185 40.7739883,36.1311185" id="Fill-23" fill="#898989" mask="url(#mask-4)"></path>
                        <path d="M35.9213385,36.1311185 C35.3620385,36.1311185 34.9098385,35.6789185 34.9098385,35.1196185 L34.9098385,33.2649186 C34.9098385,32.7056186 35.3620385,32.2551186 35.9213385,32.2551186 C36.4789385,32.2551186 36.9328384,32.7056186 36.9328384,33.2649186 L36.9328384,35.1196185 C36.9328384,35.6789185 36.4789385,36.1311185 35.9213385,36.1311185" id="Fill-24" fill="#898989" mask="url(#mask-4)"></path>
                        <path d="M60.5048675,55.4038477 L57.9684676,55.4038477 C57.4108676,55.4038477 56.9569676,54.9516477 56.9569676,54.3923477 C56.9569676,53.8347477 57.4108676,53.3825478 57.9684676,53.3825478 L60.5048675,53.3825478 C61.0624674,53.3825478 61.5146674,53.8347477 61.5146674,54.3923477 C61.5146674,54.9516477 61.0624674,55.4038477 60.5048675,55.4038477" id="Fill-25" fill="#898989" mask="url(#mask-4)"></path>
                        <path d="M60.5048675,60.2564975 L57.9684676,60.2564975 C57.4108676,60.2564975 56.9569676,59.8042975 56.9569676,59.2449975 C56.9569676,58.6873975 57.4108676,58.2351975 57.9684676,58.2351975 L60.5048675,58.2351975 C61.0624674,58.2351975 61.5146674,58.6873975 61.5146674,59.2449975 C61.5146674,59.8042975 61.0624674,60.2564975 60.5048675,60.2564975" id="Fill-26" fill="#898989" mask="url(#mask-4)"></path>
                        <path d="M9.16299961,55.4038477 L6.62829972,55.4038477 C6.06899974,55.4038477 5.61679976,54.9516477 5.61679976,54.3923477 C5.61679976,53.8347477 6.06899974,53.3825478 6.62829972,53.3825478 L9.16299961,53.3825478 C9.72059959,53.3825478 10.1744996,53.8347477 10.1744996,54.3923477 C10.1744996,54.9516477 9.72059959,55.4038477 9.16299961,55.4038477" id="Fill-27" fill="#898989" mask="url(#mask-4)"></path>
                        <path d="M9.16299961,60.2564975 L6.62829972,60.2564975 C6.06899974,60.2564975 5.61679976,59.8042975 5.61679976,59.2449975 C5.61679976,58.6873975 6.06899974,58.2351975 6.62829972,58.2351975 L9.16299961,58.2351975 C9.72059959,58.2351975 10.1744996,58.6873975 10.1744996,59.2449975 C10.1744996,59.8042975 9.72059959,60.2564975 9.16299961,60.2564975" id="Fill-28" fill="#898989" mask="url(#mask-4)"></path>
                        <path d="M28.6415988,61.4286474 C28.0839988,61.4286474 27.6300988,60.9747474 27.6300988,60.4171475 L27.6300988,46.354748 C27.6300988,45.7954481 28.0839988,45.3432481 28.6415988,45.3432481 C29.2008988,45.3432481 29.6530988,45.7954481 29.6530988,46.354748 L29.6530988,60.4171475 C29.6530988,60.9747474 29.2008988,61.4286474 28.6415988,61.4286474" id="Fill-29" fill="#898989" mask="url(#mask-4)"></path>
                        <path d="M23.790479,61.4286474 C23.231179,61.4286474 22.778979,60.9747474 22.778979,60.4171475 L22.778979,46.354748 C22.778979,45.7954481 23.231179,45.3432481 23.790479,45.3432481 C24.348079,45.3432481 24.801979,45.7954481 24.801979,46.354748 L24.801979,60.4171475 C24.800279,60.9747474 24.348079,61.4286474 23.790479,61.4286474" id="Fill-30" fill="#898989" mask="url(#mask-4)"></path>
                        <path d="M18.9379992,61.4286474 C18.3786992,61.4286474 17.9264992,60.9747474 17.9264992,60.4171475 L17.9264992,46.354748 C17.9264992,45.7954481 18.3786992,45.3432481 18.9379992,45.3432481 C19.4955992,45.3432481 19.9494992,45.7954481 19.9494992,46.354748 L19.9494992,60.4171475 C19.9494992,60.9747474 19.4955992,61.4286474 18.9379992,61.4286474" id="Fill-31" fill="#898989" mask="url(#mask-4)"></path>
                        <path d="M48.052028,61.4286474 C47.494428,61.4286474 47.040528,60.9747474 47.040528,60.4171475 L47.040528,46.354748 C47.040528,45.7954481 47.494428,45.3432481 48.052028,45.3432481 C48.609628,45.3432481 49.0635279,45.7954481 49.0635279,46.354748 L49.0635279,60.4171475 C49.0635279,60.9747474 48.609628,61.4286474 48.052028,61.4286474" id="Fill-32" fill="#898989" mask="url(#mask-4)"></path>
                        <path d="M43.1993782,61.4286474 C42.6417782,61.4286474 42.1878782,60.9747474 42.1878782,60.4171475 L42.1878782,46.354748 C42.1878782,45.7954481 42.6417782,45.3432481 43.1993782,45.3432481 C43.7569782,45.3432481 44.2108781,45.7954481 44.2108781,46.354748 L44.2108781,60.4171475 C44.2108781,60.9747474 43.7569782,61.4286474 43.1993782,61.4286474" id="Fill-33" fill="#898989" mask="url(#mask-4)"></path>
                        <path d="M38.3467284,61.4286474 C37.7891284,61.4286474 37.3352284,60.9747474 37.3352284,60.4171475 L37.3352284,46.354748 C37.3352284,45.7954481 37.7891284,45.3432481 38.3467284,45.3432481 C38.9060284,45.3432481 39.3582283,45.7954481 39.3582283,46.354748 L39.3582283,60.4171475 C39.3582283,60.9747474 38.9043284,61.4286474 38.3467284,61.4286474" id="Fill-34" fill="#898989" mask="url(#mask-4)"></path>
                        <path d="M33.4942486,61.4286474 C32.9366486,61.4286474 32.4827486,60.9747474 32.4827486,60.4171475 L32.4827486,46.354748 C32.4827486,45.7954481 32.9366486,45.3432481 33.4942486,45.3432481 C34.0535486,45.3432481 34.5057485,45.7954481 34.5057485,46.354748 L34.5057485,60.4171475 C34.5057485,60.9747474 34.0535486,61.4286474 33.4942486,61.4286474" id="Fill-35" fill="#898989" mask="url(#mask-4)"></path>
                        <path d="M49.0166079,28.0261988 C49.0166079,26.9245989 48.124108,26.0320989 47.022508,26.0320989 L19.9670092,26.0320989 C18.8654092,26.0320989 17.9729092,26.9245989 17.9729092,28.0261988 C17.9729092,29.1260988 18.8654092,30.0202987 19.9670092,30.0202987 L47.022508,30.0202987 C48.124108,30.0202987 49.0166079,29.1260988 49.0166079,28.0261988" id="Fill-36" fill="#EAE4D6" mask="url(#mask-4)"></path>
                        <path d="M22.927219,28.0261988 C22.927219,26.9245989 23.818019,26.0320989 24.919619,26.0320989 L19.9675192,26.0320989 C18.8642192,26.0320989 17.9734192,26.9245989 17.9734192,28.0261988 C17.9734192,29.1260988 18.8642192,30.0202987 19.9675192,30.0202987 L24.919619,30.0202987 C23.818019,30.0202987 22.927219,29.1260988 22.927219,28.0261988" id="Fill-37" fill="#DDD3C0" mask="url(#mask-4)"></path>
                        <path d="M56.6433176,40.3197483 C56.6433176,39.2198483 55.7508177,38.3256484 54.6492177,38.3256484 L12.3379195,38.3256484 C11.2380195,38.3256484 10.3455196,39.2198483 10.3455196,40.3197483 C10.3455196,41.4196483 11.2380195,42.3138482 12.3379195,42.3138482 L54.6492177,42.3138482 C55.7508177,42.3138482 56.6433176,41.4196483 56.6433176,40.3197483" id="Fill-38" fill="#EAE4D6" mask="url(#mask-4)"></path>
                        <path d="M15.2988094,40.3197483 C15.2988094,39.2198483 16.1913093,38.3256484 17.2929093,38.3256484 L12.3391095,38.3256484 C11.2375095,38.3256484 10.3450096,39.2198483 10.3450096,40.3197483 C10.3450096,41.4196483 11.2375095,42.3138482 12.3391095,42.3138482 L17.2929093,42.3138482 C16.1913093,42.3138482 15.2988094,41.4196483 15.2988094,40.3197483" id="Fill-39" fill="#DDD3C0" mask="url(#mask-4)"></path>
                        <path d="M4.95447979,47.632638 C4.95447979,46.532738 5.84527975,45.6385381 6.94857971,45.6385381 L1.99477992,45.6385381 C0.891479962,45.6385381 0.000679999971,46.532738 0.000679999971,47.632638 C0.000679999971,48.7325379 0.891479962,49.6267379 1.99477992,49.6267379 L6.94857971,49.6267379 C5.84527975,49.6267379 4.95447979,48.7325379 4.95447979,47.632638" id="Fill-40" fill="#DDD3C0" mask="url(#mask-4)"></path>
                        <path d="M64.9955873,64.0117973 L1.99358992,64.0117973 C0.891989962,64.0117973 0.00118999995,64.9042973 0.00118999995,66.0058972 C0.00118999995,67.1074972 0.891989962,67.9999971 1.99358992,67.9999971 L64.9955873,67.9999971 C66.0954872,67.9999971 66.9896872,67.1074972 66.9896872,66.0058972 C66.9896872,64.9042973 66.0954872,64.0117973 64.9955873,64.0117973" id="Fill-41" fill="#EAE4D6" mask="url(#mask-4)"></path>
                        <path d="M14.9917894,66.0057272 L14.9917894,66.0057272 C14.9917894,64.9058273 15.8842893,64.0116273 16.9858893,64.0116273 L1.99358992,64.0116273 C0.891989962,64.0116273 0.00118999995,64.9058273 0.00118999995,66.0057272 C0.00118999995,67.1073272 0.891989962,67.9998271 1.99358992,67.9998271 L16.9858893,67.9998271 C15.8842893,67.9998271 14.9917894,67.1073272 14.9917894,66.0057272" id="Fill-42" fill="#DDD3C0" mask="url(#mask-4)"></path>
                        <polyline id="Stroke-43" stroke="#000080" stroke-width="0.5" mask="url(#mask-4)" points="37.1183084 4.35403982 37.8833084 5.13603978 37.9003084 5.13603978 37.9003084 5.15303978 37.9173084 5.15303978 37.9173084 5.16833978 37.9326084 5.16833978 38.7146084 5.95033975"></polyline>
                        <polyline id="Stroke-44" stroke="#000080" stroke-width="0.5" mask="url(#mask-4)" points="38.8863084 5.71369976 37.9326084 5.16969978 37.9326084 5.15269978 37.9173084 5.15269978 37.9003084 5.15269978 37.9003084 5.13569978 37.8833084 5.13569978 36.9313084 4.57469981"></polyline>
                        <polyline id="Stroke-45" stroke="#000080" stroke-width="0.5" mask="url(#mask-4)" points="39.0058184 5.44152977 37.9518184 5.15252978 37.9331184 5.15252978 37.9161184 5.15252978 37.9161184 5.13552978 37.9008184 5.13552978 37.8838184 5.13552978 36.8128185 4.8465298"></polyline>
                        <polyline id="Stroke-46" stroke="#000080" stroke-width="0.5" mask="url(#mask-4)" points="39.0391384 5.15269978 37.9511384 5.15269978 37.9341384 5.15269978 37.9171384 5.15269978 37.9001384 5.15269978 37.8831384 5.15269978 36.7781385 5.15269978"></polyline>
                        <polyline id="Stroke-47" stroke="#000080" stroke-width="0.5" mask="url(#mask-4)" points="39.0058184 4.8472098 37.9518184 5.13620978 37.9161184 5.13620978 37.9161184 5.15320978 37.9008184 5.15320978 37.8838184 5.15320978 36.8128185 5.44220977"></polyline>
                        <polyline id="Stroke-48" stroke="#000080" stroke-width="0.5" mask="url(#mask-4)" points="38.8863084 4.59152981 37.9513084 5.13552978 37.9326084 5.15252978 37.9173084 5.15252978 37.9003084 5.15252978 37.9003084 5.16952978 37.8833084 5.16952978 36.9313084 5.73052976"></polyline>
                        <polyline id="Stroke-49" stroke="#000080" stroke-width="0.5" mask="url(#mask-4)" points="37.1183084 5.95118975 37.1183084 5.93418975 37.8833084 5.16918978 37.9003084 5.16918978 37.9003084 5.15218978 37.9173084 5.15218978 37.9173084 5.13688978 37.9326084 5.11988978 38.6993084 4.35488982 38.7146084 4.35488982"></polyline>
                        <polyline id="Stroke-50" stroke="#000080" stroke-width="0.5" mask="url(#mask-4)" points="37.3556284 6.12220974 37.8996284 5.16850978 37.8996284 5.15320978 37.9166284 5.15320978 37.9166284 5.13620978 37.9336284 5.11920978 38.4776284 4.16720982"></polyline>
                        <polyline id="Stroke-51" stroke="#000080" stroke-width="0.5" mask="url(#mask-4)" points="37.6113084 6.24001974 37.9003084 5.16901978 37.9003084 5.15201978 37.9173084 5.15201978 37.9173084 5.13671978 37.9173084 5.11971978 38.2063084 4.04871983"></polyline>
                        <polyline id="Stroke-52" stroke="#000080" stroke-width="0.5" mask="url(#mask-4)" points="37.9167984 6.27486974 37.9167984 5.16986978 37.9167984 5.15286978 37.9167984 5.13586978 37.9167984 5.11886978 37.9167984 4.01386983"></polyline>
                        <polyline id="Stroke-53" stroke="#000080" stroke-width="0.5" mask="url(#mask-4)" points="38.2056284 6.24001974 37.9166284 5.16901978 37.9166284 5.15201978 37.8996284 5.15201978 37.8996284 5.13671978 37.8996284 5.11971978 37.6106284 4.04871983"></polyline>
                        <polyline id="Stroke-54" stroke="#000080" stroke-width="0.5" mask="url(#mask-4)" points="38.4779684 6.12220974 37.9339684 5.16850978 37.9339684 5.15320978 37.9169684 5.15320978 37.9169684 5.13620978 37.8999684 5.13620978 37.8999684 5.11920978 37.3559684 4.16720982"></polyline>
                        <path d="M39.0440684,5.15099978 C39.0440684,5.77319976 38.5374684,6.27809974 37.9152684,6.27809974 C37.2913684,6.27809974 36.7864685,5.77319976 36.7864685,5.15099978 C36.7864685,4.52709981 37.2913684,4.02219983 37.9152684,4.02219983 C38.5374684,4.02219983 39.0440684,4.52709981 39.0440684,5.15099978 Z" id="Stroke-55" stroke="#000080" stroke-width="0.5" mask="url(#mask-4)"></path>
                    </g>
                </g>
            </g>
        </g>
    </g>
</svg>