<?xml version="1.0" encoding="UTF-8"?>
<svg width="50px" height="50px" viewBox="0 0 50 50" version="1.1" xmlns="http://www.w3.org/2000/svg" xmlns:xlink="http://www.w3.org/1999/xlink">
    <!-- Generator: Sketch 59.1 (86144) - https://sketch.com -->
    <title>Group 23</title>
    <desc>Created with Sketch.</desc>
    <defs>
        <polygon id="path-1" points="0.000620165506 0.0848386413 22.2397552 0.0848386413 22.2397552 22.3259582 0.000620165506 22.3259582"></polygon>
        <polygon id="path-3" points="0.0854588068 0.0848386413 22.3258342 0.0848386413 22.3258342 22.3259582 0.0854588068 22.3259582"></polygon>
    </defs>
    <g id="Page-1" stroke="none" stroke-width="1" fill="none" fill-rule="evenodd">
        <g id="2" transform="translate(-528.000000, -365.000000)">
            <g id="Group-4" transform="translate(199.000000, 324.000000)">
                <g id="Group-23" transform="translate(329.000000, 41.000000)">
                    <path d="M19.6747507,22.2404994 L2.5656247,22.2404994 C1.14792635,22.2404994 0.000620165506,21.0907126 0.000620165506,19.6742546 L0.000620165506,2.5663689 C0.000620165506,1.14867055 1.14792635,0.000124033101 2.5656247,0.000124033101 L19.6747507,0.000124033101 C21.092449,0.000124033101 22.2397552,1.14867055 22.2397552,2.5663689 L22.2397552,19.6742546 C22.2397552,21.0907126 21.092449,22.2404994 19.6747507,22.2404994" id="Fill-1" fill="#7DFAA0"></path>
                    <path d="M47.0468716,22.2404994 L29.938986,22.2404994 C28.5212876,22.2404994 27.3727411,21.0907126 27.3727411,19.6742546 L27.3727411,2.5663689 C27.3727411,1.14867055 28.5212876,0.000124033101 29.938986,0.000124033101 L47.0468716,0.000124033101 C48.46457,0.000124033101 49.6131165,1.14867055 49.6131165,2.5663689 L49.6131165,19.6742546 C49.6131165,21.0907126 48.46457,22.2404994 47.0468716,22.2404994" id="Fill-3" fill="#C02A00"></path>
                    <g id="Group-7" transform="translate(0.000000, 27.287282)">
                        <mask id="mask-2" fill="white">
                            <use xlink:href="#path-1"></use>
                        </mask>
                        <g id="Clip-6"></g>
                        <path d="M19.6747507,22.3264544 L2.5656247,22.3264544 C1.14792635,22.3264544 0.000620165506,21.1766675 0.000620165506,19.7602095 L0.000620165506,2.65232384 C0.000620165506,1.23462549 1.14792635,0.0848386413 2.5656247,0.0848386413 L19.6747507,0.0848386413 C21.092449,0.0848386413 22.2397552,1.23462549 22.2397552,2.65232384 L22.2397552,19.7602095 C22.2397552,21.1766675 21.092449,22.3264544 19.6747507,22.3264544" id="Fill-5" fill="#E5BA24" mask="url(#mask-2)"></path>
                    </g>
                    <g id="Group-10" transform="translate(27.287282, 27.287282)">
                        <mask id="mask-4" fill="white">
                            <use xlink:href="#path-3"></use>
                        </mask>
                        <g id="Clip-9"></g>
                        <path d="M19.7595893,22.3264544 L2.65170367,22.3264544 C1.23400532,22.3264544 0.0854588068,21.1766675 0.0854588068,19.7602095 L0.0854588068,2.65232384 C0.0854588068,1.23462549 1.23400532,0.0848386413 2.65170367,0.0848386413 L19.7595893,0.0848386413 C21.1772877,0.0848386413 22.3258342,1.23462549 22.3258342,2.65232384 L22.3258342,19.7602095 C22.3258342,21.1766675 21.1772877,22.3264544 19.7595893,22.3264544" id="Fill-8" fill="#00C3FF" mask="url(#mask-4)"></path>
                    </g>
                    <path d="M16.2529255,10.2647314 L11.9762642,10.2647314 L11.9762642,5.98807006 C11.9762642,5.51550395 11.5930019,5.13224166 11.1191954,5.13224166 C10.6466293,5.13224166 10.2646074,5.51550395 10.2646074,5.98807006 L10.2646074,10.2647314 L5.98794603,10.2647314 C5.51537991,10.2647314 5.13211763,10.6479937 5.13211763,11.1193195 C5.13211763,11.5918856 5.51537991,11.9751479 5.98794603,11.9751479 L10.2646074,11.9751479 L10.2646074,16.2530495 C10.2646074,16.7256156 10.6466293,17.1088779 11.1191954,17.1088779 C11.5930019,17.1088779 11.9762642,16.7256156 11.9762642,16.2530495 L11.9762642,11.9751479 L16.2529255,11.9751479 C16.7254916,11.9751479 17.1075136,11.5918856 17.1075136,11.1193195 C17.1075136,10.6479937 16.7254916,10.2647314 16.2529255,10.2647314" id="Fill-11" fill="#FFFFFF"></path>
                    <path d="M33.3608112,11.9750238 L43.6245503,11.9750238 C44.0983567,11.9750238 44.481619,11.5917615 44.481619,11.1204358 C44.481619,10.6478696 44.0983567,10.2646074 43.6245503,10.2646074 L33.3608112,10.2646074 C32.8870047,10.2646074 32.5062231,10.6478696 32.5062231,11.1204358 C32.5062231,11.5917615 32.8870047,11.9750238 33.3608112,11.9750238" id="Fill-13" fill="#FFFFFF"></path>
                    <path d="M43.6250464,37.6379686 L33.3613073,37.6379686 C32.8875008,37.6379686 32.5054789,38.0212309 32.5054789,38.4925567 C32.5054789,38.9651228 32.8875008,39.3483851 33.3613073,39.3483851 L43.6250464,39.3483851 C44.0988529,39.3483851 44.4808748,38.9651228 44.4808748,38.4925567 C44.4808748,38.0212309 44.0988529,37.6379686 43.6250464,37.6379686" id="Fill-15" fill="#FFFFFF"></path>
                    <path d="M16.0022546,33.6117301 C15.6673652,33.2768407 15.1265809,33.2768407 14.7916915,33.6117301 L11.1190714,37.2831099 L7.44893193,33.6117301 C7.11404256,33.2768407 6.5720179,33.2768407 6.23836886,33.6117301 C5.90347949,33.9453792 5.90347949,34.4861635 6.23836886,34.8210529 L9.91098899,38.493673 L6.23836886,42.1650528 C5.90347949,42.4987018 5.90347949,43.0407265 6.23836886,43.3743755 C6.40581355,43.5418202 6.62411181,43.6249224 6.84241006,43.6249224 C7.06194865,43.6249224 7.28148724,43.5418202 7.44893193,43.3743755 L11.1190714,39.7029957 L14.7916915,43.3743755 C14.9591362,43.5418202 15.1786748,43.6249224 15.3969731,43.6249224 C15.6152713,43.6249224 15.8348099,43.5418202 16.0022546,43.3743755 C16.337144,43.0407265 16.337144,42.4987018 16.0022546,42.1650528 L12.3296345,38.493673 L16.0022546,34.8210529 C16.337144,34.4861635 16.337144,33.9453792 16.0022546,33.6117301" id="Fill-17" fill="#FFFFFF"></path>
                    <path d="M37.6378446,33.3646562 C37.6378446,33.8372223 38.0248279,34.2242056 38.497394,34.2242056 C38.9699601,34.2242056 39.3569434,33.8372223 39.3569434,33.3646562 C39.3569434,32.8920901 38.9699601,32.5051068 38.497394,32.5051068 C38.0248279,32.5051068 37.6378446,32.8920901 37.6378446,33.3646562" id="Fill-19" fill="#FFFFFF"></path>
                    <path d="M38.4977661,42.761652 C38.0239596,42.761652 37.6382167,43.1486353 37.6382167,43.6212014 C37.6382167,44.0937675 38.0239596,44.4807508 38.4977661,44.4807508 C38.9703322,44.4807508 39.3560751,44.0937675 39.3560751,43.6212014 C39.3560751,43.1486353 38.9703322,42.761652 38.4977661,42.761652" id="Fill-21" fill="#FFFFFF"></path>
                </g>
            </g>
        </g>
    </g>
</svg>