<svg xmlns="http://www.w3.org/2000/svg" width="55.261" height="61.027" viewBox="0 0 55.261 61.027">
  <g id="calendar_2_" data-name="calendar (2)" transform="translate(-24)">
    <g id="Group_1556" data-name="Group 1556" transform="translate(27.604 13.575)">
      <path id="Path_3186" data-name="Path 3186" d="M102.052,148.023V114.017q-.367-.517-.756-1.017H54.755q-.388.5-.756,1.017v34.006a29.437,29.437,0,0,0,48.053,0Z" transform="translate(-53.999 -113)" fill="#fff9eb"/>
    </g>
    <g id="Group_1557" data-name="Group 1557" transform="translate(27.604 13.575)">
      <path id="Path_3187" data-name="Path 3187" d="M73.808,116.724V113H54.755q-.388.5-.756,1.017v34.006a29.437,29.437,0,0,0,48.053,0C85.645,148.023,73.808,136.561,73.808,116.724Z" transform="translate(-53.999 -113)" fill="#fcf1d4"/>
    </g>
    <g id="Group_1558" data-name="Group 1558" transform="translate(26.312 12.974)">
      <path id="Path_3188" data-name="Path 3188" d="M43.243,112.353a1.2,1.2,0,0,0,1.942.946,3.24,3.24,0,0,1,2.279-.974c2.11,0,2.11,1.682,4.22,1.682s2.11-1.682,4.22-1.682,2.11,1.682,4.22,1.682,2.11-1.682,4.22-1.682,2.11,1.682,4.22,1.682,2.11-1.682,4.219-1.682,2.11,1.682,4.219,1.682,2.11-1.682,4.22-1.682,2.11,1.682,4.22,1.682,2.11-1.682,4.22-1.682a3.238,3.238,0,0,1,2.277.974,1.2,1.2,0,0,0,1.942-.946V108H43.243Z" transform="translate(-43.243 -108)" fill="#fcf1d4"/>
    </g>
    <g id="Group_1559" data-name="Group 1559" transform="translate(26.312 12.974)">
      <path id="Path_3189" data-name="Path 3189" d="M62.782,110.763a1.562,1.562,0,0,1,1.562-1.562V108h-21.1v4.353a1.2,1.2,0,0,0,1.942.946,3.24,3.24,0,0,1,2.279-.974c2.11,0,2.11,1.682,4.22,1.682s2.11-1.682,4.22-1.682,2.11,1.682,4.22,1.682,2.11-1.682,4.22-1.682A1.562,1.562,0,0,1,62.782,110.763Z" transform="translate(-43.243 -108)" fill="#f2e1bb"/>
    </g>
    <g id="Group_1560" data-name="Group 1560" transform="translate(24 2.162)">
      <path id="Path_3190" data-name="Path 3190" d="M77.459,30.013H25.8a1.8,1.8,0,0,1-1.8-1.8V19.8A1.8,1.8,0,0,1,25.8,18H77.459a1.8,1.8,0,0,1,1.8,1.8v8.409A1.8,1.8,0,0,1,77.459,30.013Z" transform="translate(-24 -18)" fill="#f94a38"/>
    </g>
    <g id="Group_1563" data-name="Group 1563" transform="translate(34.094 5.466)">
      <g id="Group_1561" data-name="Group 1561" transform="translate(0 3.604)">
        <path id="Path_3191" data-name="Path 3191" d="M143.095,76.4a.9.9,0,0,0-.9-.9H108.922a.9.9,0,0,0,0,1.8h33.271A.9.9,0,0,0,143.095,76.4Z" transform="translate(-108.021 -75.5)" fill="#d82f1d"/>
      </g>
      <g id="Group_1562" data-name="Group 1562" transform="translate(9.391)">
        <path id="Path_3192" data-name="Path 3192" d="M202.483,46.4a.9.9,0,0,0-.9-.9h-14.49a.9.9,0,1,0,0,1.8h14.49A.9.9,0,0,0,202.483,46.4Z" transform="translate(-186.191 -45.5)" fill="#d82f1d"/>
      </g>
    </g>
    <g id="Group_1564" data-name="Group 1564" transform="translate(24 2.162)">
      <path id="Path_3193" data-name="Path 3193" d="M38.078,28.211V19.8a1.8,1.8,0,0,1,1.8-1.8H25.8A1.8,1.8,0,0,0,24,19.8v8.409a1.8,1.8,0,0,0,1.8,1.8H39.88A1.8,1.8,0,0,1,38.078,28.211Z" transform="translate(-24 -18)" fill="#d82f1d"/>
    </g>
    <g id="Group_1565" data-name="Group 1565" transform="translate(71.32)">
      <path id="Path_3194" data-name="Path 3194" d="M419.706,0a1.8,1.8,0,0,0-1.8,1.8V8.169a1.8,1.8,0,1,0,3.6,0V1.8A1.8,1.8,0,0,0,419.706,0Z" transform="translate(-417.904)" fill="#fcb332"/>
    </g>
    <g id="Group_1566" data-name="Group 1566" transform="translate(28.336)">
      <path id="Path_3195" data-name="Path 3195" d="M61.9,0a1.8,1.8,0,0,0-1.8,1.8V8.169a1.8,1.8,0,1,0,3.6,0V1.8A1.8,1.8,0,0,0,61.9,0Z" transform="translate(-60.096)" fill="#fcb332"/>
    </g>
    <g id="Group_1567" data-name="Group 1567" transform="translate(28.336 3.364)">
      <path id="Path_3196" data-name="Path 3196" d="M61.9,29.8A1.8,1.8,0,0,1,60.1,28v4.805a1.8,1.8,0,1,0,3.6,0V28A1.8,1.8,0,0,1,61.9,29.8Z" transform="translate(-60.096 -28)" fill="#fb8b24"/>
    </g>
    <g id="Group_1568" data-name="Group 1568" transform="translate(71.32 3.364)">
      <path id="Path_3197" data-name="Path 3197" d="M419.706,29.8a1.8,1.8,0,0,1-1.8-1.8v4.805a1.8,1.8,0,1,0,3.6,0V28A1.8,1.8,0,0,1,419.706,29.8Z" transform="translate(-417.904 -28)" fill="#fb8b24"/>
    </g>
    <g id="Group_1569" data-name="Group 1569" transform="translate(63.38)">
      <path id="Path_3198" data-name="Path 3198" d="M353.611,0a1.8,1.8,0,0,0-1.8,1.8V8.169a1.8,1.8,0,1,0,3.6,0V1.8A1.8,1.8,0,0,0,353.611,0Z" transform="translate(-351.809)" fill="#fcb332"/>
    </g>
    <g id="Group_1570" data-name="Group 1570" transform="translate(63.38 3.364)">
      <path id="Path_3199" data-name="Path 3199" d="M353.611,29.8a1.8,1.8,0,0,1-1.8-1.8v4.805a1.8,1.8,0,1,0,3.6,0V28A1.8,1.8,0,0,1,353.611,29.8Z" transform="translate(-351.809 -28)" fill="#fb8b24"/>
    </g>
    <g id="Group_1571" data-name="Group 1571" transform="translate(36.276)">
      <path id="Path_3200" data-name="Path 3200" d="M127.993,0a1.8,1.8,0,0,0-1.8,1.8V8.169a1.8,1.8,0,1,0,3.6,0V1.8A1.8,1.8,0,0,0,127.993,0Z" transform="translate(-126.191)" fill="#fcb332"/>
    </g>
    <g id="Group_1572" data-name="Group 1572" transform="translate(36.277 3.364)">
      <path id="Path_3201" data-name="Path 3201" d="M127.994,29.8a1.8,1.8,0,0,1-1.8-1.8v4.805a1.8,1.8,0,1,0,3.6,0V28A1.8,1.8,0,0,1,127.994,29.8Z" transform="translate(-126.192 -28)" fill="#fb8b24"/>
    </g>
    <g id="Group_1579" data-name="Group 1579" transform="translate(34.73 21.316)">
      <g id="Group_1573" data-name="Group 1573" transform="translate(0 7.207)">
        <path id="Path_3202" data-name="Path 3202" d="M146.633,247.711c-1.315-4.7-5.045-6.359-7.916-5.957s-5.179,3.408-6.225,6.091-3.357,3.013-4.024,2.495l-.033-.023a1.555,1.555,0,0,1-.209-2.4c4.42-4.251,1.6-9.556-2.522-10.352-3.677-.71-7.536,1.4-8.923,2.264a.669.669,0,0,0-.23.9l1.779,3.164a.669.669,0,0,0,1,.2,9.552,9.552,0,0,1,4.82-2.092c2.978-.241,4.669,1.449,3.3,3.757-.981,1.655-4,1.509-5.627,1.294a.668.668,0,0,0-.722.872l1.279,3.9a.673.673,0,0,0,.841.427c4.364-1.372,6.188,1.41,5.342,4.471-.885,3.2-5.514,5.167-9.982,2.515a10.738,10.738,0,0,1-4.1-5.448.6.6,0,0,0-1.153.311c.591,3.993,2.49,8.253,6.944,10.2,6.52,2.858,12.4-1.489,11.753-7.582a9.258,9.258,0,0,0-1.435-4.2c4.139.345,6.3-3.225,6.921-5.058.656-1.932,2.6-3.637,4.8-2.886,6.036,2.061,1.734,14.066-4.415,12.8a4.667,4.667,0,0,1-3.331-3.131.335.335,0,0,0-.644.065c-.636,4.171,2.017,10.093,7.719,7.788C147.948,259.544,147.948,252.407,146.633,247.711Z" transform="translate(-113.318 -237.424)" fill="#2fad4f"/>
      </g>
      <g id="Group_1574" data-name="Group 1574" transform="translate(14.83 3.183)">
        <path id="Path_3203" data-name="Path 3203" d="M236.768,204.336a.341.341,0,0,1,.631-.234c.832,1.446,2.243,3.217,4.27,3.517,3.178.469,6.028-1.5,7.834-3.057a.682.682,0,0,1,.984.1l1.96,2.53a.683.683,0,0,1-.1.938,12.523,12.523,0,0,1-7.567,3.067C240.628,211.268,237.734,209.47,236.768,204.336Z" transform="translate(-236.762 -203.929)" fill="#2fad4f"/>
      </g>
      <g id="Group_1575" data-name="Group 1575" transform="translate(18.204)">
        <path id="Path_3204" data-name="Path 3204" d="M270.19,180.684l-2.085,2.085a.682.682,0,0,1-.965,0l-2.085-2.085a.682.682,0,0,1,0-.965l2.085-2.085a.682.682,0,0,1,.965,0l2.085,2.085A.682.682,0,0,1,270.19,180.684Z" transform="translate(-264.855 -177.434)" fill="#2fad4f"/>
      </g>
      <g id="Group_1576" data-name="Group 1576" transform="translate(18.204 0.826)">
        <path id="Path_3205" data-name="Path 3205" d="M265.055,185.768a.682.682,0,0,0,0,.965l2.085,2.085a.682.682,0,0,0,.965,0l1.271-1.271c-2.277-.348-3.364-2.736-2.862-3.238Z" transform="translate(-264.855 -184.309)" fill="#2b8f49"/>
      </g>
      <g id="Group_1577" data-name="Group 1577" transform="translate(14.83 3.183)">
        <path id="Path_3206" data-name="Path 3206" d="M242.587,207.688a6.58,6.58,0,0,1-.916-.07c-2.027-.3-3.438-2.071-4.27-3.517a.341.341,0,0,0-.631.234c.965,5.134,3.859,6.932,8.014,6.861a10.2,10.2,0,0,0,1.98-.232A4.3,4.3,0,0,1,242.587,207.688Z" transform="translate(-236.763 -203.929)" fill="#2b8f49"/>
      </g>
      <g id="Group_1578" data-name="Group 1578" transform="translate(0 9.506)">
        <path id="Path_3207" data-name="Path 3207" d="M130.588,269.354c-2.4-1.961-5.33-1.75-5.33-3.1s2.178-1.994,3.343-3.773a4.1,4.1,0,0,0-3.65-5.92c-2.684,0-5.945,1.625-7.545,2.525l.924,1.642a.669.669,0,0,0,1,.2,9.552,9.552,0,0,1,4.82-2.092c2.978-.241,4.669,1.449,3.3,3.757-.981,1.655-4,1.509-5.627,1.294a.668.668,0,0,0-.722.872l1.279,3.9a.673.673,0,0,0,.841.427c4.364-1.372,6.188,1.41,5.342,4.471-.886,3.2-5.514,5.167-9.982,2.515a10.738,10.738,0,0,1-4.1-5.448.6.6,0,0,0-1.153.311c.591,3.993,2.49,8.253,6.944,10.2,6.52,2.858,12.4-1.489,11.753-7.582A9.258,9.258,0,0,0,130.588,269.354Z" transform="translate(-113.319 -256.562)" fill="#2b8f49"/>
      </g>
    </g>
  </g>
</svg>
