<?xml version="1.0" encoding="UTF-8"?>
<svg width="62px" height="62px" viewBox="0 0 62 62" version="1.1" xmlns="http://www.w3.org/2000/svg" xmlns:xlink="http://www.w3.org/1999/xlink">
    <!-- Generator: Sketch 59.1 (86144) - https://sketch.com -->
    <title>dictionary</title>
    <desc>Created with Sketch.</desc>
    <g id="Page-1" stroke="none" stroke-width="1" fill="none" fill-rule="evenodd">
        <g id="2" transform="translate(-230.000000, -360.000000)" fill-rule="nonzero">
            <g id="Group-4" transform="translate(199.000000, 324.000000)">
                <g id="dictionary" transform="translate(31.000000, 36.000000)">
                    <path d="M30.8018369,54.1463167 L57.6277518,54.1463167 L57.6277518,50.1502444 C46.7908239,50.1502444 37.951994,38.4670021 30.8018369,47.6778098 L30.8018369,54.1463167 Z" id="Path" fill="#8DB7E1"></path>
                    <path d="M30.8071526,54.1463167 L3.98123774,54.1463167 L3.98123774,50.1502444 C14.8181656,50.1502444 23.6569955,38.4670021 30.8071526,47.6778098 L30.8071526,54.1463167 Z" id="Path" fill="#78A4C5"></path>
                    <path d="M47.940506,0 L13.4994927,0 C12.1123333,0 10.98787,1.12446323 10.98787,2.51162264 L10.98787,26.2526809 C10.98787,27.6398403 12.1123333,28.7643036 13.4994927,28.7643036 L24.7819532,28.7643036 C25.6793234,28.7643036 26.5084543,29.2429669 26.9570775,30.0200531 L30.7199993,36.5376378 L34.4829211,30.0200531 C34.9315443,29.2429669 35.7606753,28.7643036 36.6580454,28.7643036 L47.940506,28.7643036 C49.3276654,28.7643036 50.4521286,27.6398403 50.4521286,26.2526809 L50.4521286,2.51162264 C50.4521286,1.12446323 49.3276654,0 47.940506,0 Z" id="Path" fill="#4DCF9D"></path>
                    <path d="M47.940506,0 L42.9956369,0 C44.3827963,0 45.5072595,1.12446323 45.5072595,2.51162264 L45.5072595,26.2526809 C45.5072595,27.6398403 44.3827963,28.7643036 42.9956369,28.7643036 L47.940506,28.7643036 C49.3276654,28.7643036 50.4521286,27.6398403 50.4521286,26.2526809 L50.4521286,2.51162264 C50.4521286,1.12446323 49.3276654,0 47.940506,0 Z" id="Path" fill="#2AB27E"></path>
                    <path d="M59.6474836,54.1463167 L1.79251505,54.1463167 C0.802552256,54.1463167 0,54.948869 0,55.9388317 C0,56.9287945 0.802552256,57.7313468 1.79251505,57.7313468 L28.8508388,57.7313468 C29.1517341,56.9943141 29.8746739,56.4744847 30.7199993,56.4744847 C31.5653247,56.4744847 32.2881409,56.9943141 32.5891598,57.7313468 L59.6474836,57.7313468 C60.6374464,57.7313468 61.4399986,56.9287945 61.4399986,55.9388317 C61.4399986,54.948869 60.6374464,54.1463167 59.6474836,54.1463167 Z" id="Path" fill="#3E5876"></path>
                    <path d="M59.6474836,54.1463167 L54.7026145,54.1463167 C55.6925773,54.1463167 56.4951295,54.948869 56.4951295,55.9388317 C56.4951295,56.9287945 55.6925773,57.7313468 54.7026145,57.7313468 L59.6474836,57.7313468 C60.6374464,57.7313468 61.4399986,56.9287945 61.4399986,55.9388317 C61.4399986,54.948869 60.6374464,54.1463167 59.6474836,54.1463167 Z" id="Path" fill="#5C6D80"></path>
                    <polygon id="Path" fill="#FC435F" points="45.5909514 44.7238686 45.5909514 61.4399986 50.5645008 58.6585098 50.5645008 46.8054113"></polygon>
                    <g id="Group" transform="translate(16.441690, 8.653521)" fill="#FFFFFF">
                        <path d="M6.06302763,0.770163363 C6.05981347,0.761509842 6.05635206,0.752856321 6.05289065,0.744450044 C5.87388639,0.309796049 5.45480873,0.0291747277 4.98479892,0.0291747277 C4.98430444,0.0291747277 4.98380995,0.0291747277 4.98331546,0.0291747277 C4.51293479,0.0297928364 4.09385713,0.311526754 3.91571822,0.746922478 C3.91287492,0.753968917 3.91003162,0.760891733 3.90743557,0.767938172 L0.132151627,10.6805464 C-0.0501904214,11.1590861 0.190130217,11.6947391 0.668669925,11.8769575 C1.14659152,12.0592995 1.68273896,11.8191025 1.865081,11.3405628 L2.57788389,9.46892985 L7.36389907,9.46892985 L8.06928465,11.3378431 C8.20934807,11.7090792 8.56216448,11.9379679 8.93686193,11.9379679 C9.04564905,11.9379679 9.1562905,11.918618 9.26408865,11.8779465 C9.74312284,11.6972115 9.98492694,11.1621767 9.80406835,10.6831425 L6.06302763,0.770163363 Z M3.28413482,7.61460393 L4.981832,3.15705168 L6.66407647,7.61460393 L3.28413482,7.61460393 Z" id="Shape"></path>
                        <path d="M27.5580028,10.0833298 L22.5615834,10.0833298 L28.1787075,1.46244504 C28.3643873,1.17737333 28.3790983,0.813554589 28.2170302,0.51451363 C28.0549621,0.215472671 27.7420755,0.0291747277 27.4018685,0.0291747277 L21.0569834,0.0291747277 C20.5448185,0.0291747277 20.1298204,0.444296489 20.1298204,0.956337685 C20.1298204,1.46837888 20.5448185,1.88350064 21.0569834,1.88350064 L25.6910674,1.88350064 L20.0739434,10.5043854 C19.8882635,10.7894571 19.8735526,11.1532759 20.0356206,11.4523168 C20.1976887,11.7513578 20.5105753,11.9376557 20.8507823,11.9376557 L27.5580028,11.9376557 C28.0701676,11.9376557 28.4851657,11.522534 28.4851657,11.0104928 C28.4851657,10.4984516 28.070044,10.0833298 27.5580028,10.0833298 L27.5580028,10.0833298 Z" id="Path"></path>
                        <path d="M17.3185387,5.05625228 L12.4689819,5.05625228 C11.9568171,5.05625228 11.541819,5.47137404 11.541819,5.98341524 C11.541819,6.49545643 11.9568171,6.9105782 12.4689819,6.9105782 L17.3185387,6.9105782 C17.8307035,6.9105782 18.2457016,6.49545643 18.2457016,5.98341524 C18.2457016,5.47137404 17.8305799,5.05625228 17.3185387,5.05625228 Z" id="Path"></path>
                    </g>
                </g>
            </g>
        </g>
    </g>
</svg>